<mxfile host="app.diagrams.net" modified="2021-05-28T03:14:11.578Z" agent="5.0 (Windows NT 10.0; Win64; x64) AppleWebKit/537.36 (KHTML, like Gecko) Chrome/90.0.4430.212 Safari/537.36" etag="ylH2P6QYDPoYtafXI5UX" version="14.7.2" type="github">
  <diagram id="Qbc0r7cl9w0R0CRKhzlL" name="Page-1">
    <mxGraphModel dx="1718" dy="967" grid="0" gridSize="10" guides="1" tooltips="1" connect="1" arrows="1" fold="1" page="1" pageScale="1" pageWidth="827" pageHeight="1169" math="0" shadow="0">
      <root>
        <mxCell id="0" />
        <mxCell id="1" parent="0" />
        <mxCell id="qlUCb1G9km6SzjGThaO4-9" style="edgeStyle=orthogonalEdgeStyle;rounded=0;orthogonalLoop=1;jettySize=auto;html=1;exitX=0.5;exitY=1;exitDx=0;exitDy=0;entryX=0.5;entryY=0;entryDx=0;entryDy=0;" parent="1" source="qlUCb1G9km6SzjGThaO4-1" target="qlUCb1G9km6SzjGThaO4-3" edge="1">
          <mxGeometry relative="1" as="geometry" />
        </mxCell>
        <mxCell id="qlUCb1G9km6SzjGThaO4-1" value="&lt;font style=&quot;font-size: 24px&quot;&gt;IPTW&lt;/font&gt;" style="rounded=0;whiteSpace=wrap;html=1;" parent="1" vertex="1">
          <mxGeometry x="120" y="110" width="120" height="60" as="geometry" />
        </mxCell>
        <mxCell id="qlUCb1G9km6SzjGThaO4-10" style="edgeStyle=orthogonalEdgeStyle;rounded=0;orthogonalLoop=1;jettySize=auto;html=1;exitX=0.5;exitY=1;exitDx=0;exitDy=0;" parent="1" source="qlUCb1G9km6SzjGThaO4-2" target="qlUCb1G9km6SzjGThaO4-4" edge="1">
          <mxGeometry relative="1" as="geometry" />
        </mxCell>
        <mxCell id="qlUCb1G9km6SzjGThaO4-2" value="&lt;font style=&quot;font-size: 24px&quot;&gt;DPTW&lt;/font&gt;" style="rounded=0;whiteSpace=wrap;html=1;" parent="1" vertex="1">
          <mxGeometry x="540" y="110" width="120" height="60" as="geometry" />
        </mxCell>
        <mxCell id="qlUCb1G9km6SzjGThaO4-11" style="edgeStyle=orthogonalEdgeStyle;rounded=0;orthogonalLoop=1;jettySize=auto;html=1;exitX=0.5;exitY=1;exitDx=0;exitDy=0;entryX=0.5;entryY=0;entryDx=0;entryDy=0;" parent="1" source="qlUCb1G9km6SzjGThaO4-3" target="qlUCb1G9km6SzjGThaO4-5" edge="1">
          <mxGeometry relative="1" as="geometry" />
        </mxCell>
        <mxCell id="qlUCb1G9km6SzjGThaO4-3" value="&lt;font style=&quot;font-size: 24px&quot;&gt;ITLB&lt;/font&gt;" style="rounded=0;whiteSpace=wrap;html=1;" parent="1" vertex="1">
          <mxGeometry x="120" y="210" width="120" height="60" as="geometry" />
        </mxCell>
        <mxCell id="qlUCb1G9km6SzjGThaO4-12" style="edgeStyle=orthogonalEdgeStyle;rounded=0;orthogonalLoop=1;jettySize=auto;html=1;exitX=0.5;exitY=1;exitDx=0;exitDy=0;entryX=0.5;entryY=0;entryDx=0;entryDy=0;" parent="1" source="qlUCb1G9km6SzjGThaO4-4" target="qlUCb1G9km6SzjGThaO4-6" edge="1">
          <mxGeometry relative="1" as="geometry" />
        </mxCell>
        <mxCell id="qlUCb1G9km6SzjGThaO4-4" value="&lt;font style=&quot;font-size: 24px&quot;&gt;DTLB&lt;/font&gt;" style="rounded=0;whiteSpace=wrap;html=1;" parent="1" vertex="1">
          <mxGeometry x="540" y="210" width="120" height="60" as="geometry" />
        </mxCell>
        <mxCell id="qlUCb1G9km6SzjGThaO4-13" style="edgeStyle=orthogonalEdgeStyle;rounded=0;orthogonalLoop=1;jettySize=auto;html=1;exitX=0.5;exitY=1;exitDx=0;exitDy=0;" parent="1" source="qlUCb1G9km6SzjGThaO4-5" target="qlUCb1G9km6SzjGThaO4-7" edge="1">
          <mxGeometry relative="1" as="geometry">
            <mxPoint x="180" y="410" as="targetPoint" />
          </mxGeometry>
        </mxCell>
        <mxCell id="qlUCb1G9km6SzjGThaO4-5" value="&lt;font style=&quot;font-size: 24px&quot;&gt;IMMU&lt;/font&gt;" style="rounded=0;whiteSpace=wrap;html=1;" parent="1" vertex="1">
          <mxGeometry x="120" y="310" width="120" height="60" as="geometry" />
        </mxCell>
        <mxCell id="qlUCb1G9km6SzjGThaO4-15" style="edgeStyle=orthogonalEdgeStyle;rounded=0;orthogonalLoop=1;jettySize=auto;html=1;exitX=0.5;exitY=1;exitDx=0;exitDy=0;" parent="1" source="qlUCb1G9km6SzjGThaO4-6" target="qlUCb1G9km6SzjGThaO4-7" edge="1">
          <mxGeometry relative="1" as="geometry" />
        </mxCell>
        <mxCell id="qlUCb1G9km6SzjGThaO4-6" value="&lt;font style=&quot;font-size: 24px&quot;&gt;DMMU&lt;/font&gt;" style="rounded=0;whiteSpace=wrap;html=1;" parent="1" vertex="1">
          <mxGeometry x="540" y="310" width="120" height="60" as="geometry" />
        </mxCell>
        <mxCell id="qlUCb1G9km6SzjGThaO4-16" style="edgeStyle=orthogonalEdgeStyle;rounded=0;orthogonalLoop=1;jettySize=auto;html=1;exitX=0.5;exitY=1;exitDx=0;exitDy=0;entryX=0.5;entryY=0;entryDx=0;entryDy=0;" parent="1" source="qlUCb1G9km6SzjGThaO4-7" target="qlUCb1G9km6SzjGThaO4-8" edge="1">
          <mxGeometry relative="1" as="geometry">
            <mxPoint x="390" y="530" as="targetPoint" />
          </mxGeometry>
        </mxCell>
        <mxCell id="qlUCb1G9km6SzjGThaO4-7" value="&lt;font style=&quot;font-size: 24px&quot;&gt;DJTU&lt;/font&gt;" style="rounded=0;whiteSpace=wrap;html=1;" parent="1" vertex="1">
          <mxGeometry x="120" y="420" width="540" height="60" as="geometry" />
        </mxCell>
        <mxCell id="qlUCb1G9km6SzjGThaO4-8" value="&lt;font style=&quot;font-size: 24px&quot;&gt;DCache&lt;/font&gt;" style="rounded=0;whiteSpace=wrap;html=1;" parent="1" vertex="1">
          <mxGeometry x="115" y="530" width="550" height="125" as="geometry" />
        </mxCell>
        <mxCell id="qlUCb1G9km6SzjGThaO4-19" value="&lt;font style=&quot;font-size: 18px&quot;&gt;PTE req&lt;/font&gt;" style="text;html=1;strokeColor=none;fillColor=none;align=center;verticalAlign=middle;whiteSpace=wrap;rounded=0;" parent="1" vertex="1">
          <mxGeometry x="96" y="182" width="72" height="18" as="geometry" />
        </mxCell>
        <mxCell id="qlUCb1G9km6SzjGThaO4-25" value="&lt;font style=&quot;font-size: 18px&quot;&gt;make a choice&lt;/font&gt;" style="text;html=1;strokeColor=none;fillColor=none;align=center;verticalAlign=middle;whiteSpace=wrap;rounded=0;" parent="1" vertex="1">
          <mxGeometry x="310" y="370" width="160" height="20" as="geometry" />
        </mxCell>
        <mxCell id="qlUCb1G9km6SzjGThaO4-26" value="&lt;font style=&quot;font-size: 18px&quot;&gt;req for PTE&lt;/font&gt;" style="text;html=1;strokeColor=none;fillColor=none;align=center;verticalAlign=middle;whiteSpace=wrap;rounded=0;" parent="1" vertex="1">
          <mxGeometry x="316" y="489" width="134" height="32" as="geometry" />
        </mxCell>
        <mxCell id="nRF5QWHPq7WyosWiSte5-1" value="&lt;font style=&quot;font-size: 18px&quot;&gt;PTE req&lt;/font&gt;" style="text;html=1;strokeColor=none;fillColor=none;align=center;verticalAlign=middle;whiteSpace=wrap;rounded=0;" vertex="1" parent="1">
          <mxGeometry x="96" y="281" width="72" height="18" as="geometry" />
        </mxCell>
        <mxCell id="nRF5QWHPq7WyosWiSte5-2" value="&lt;font style=&quot;font-size: 18px&quot;&gt;PTE req&lt;/font&gt;" style="text;html=1;strokeColor=none;fillColor=none;align=center;verticalAlign=middle;whiteSpace=wrap;rounded=0;" vertex="1" parent="1">
          <mxGeometry x="611" y="182" width="72" height="18" as="geometry" />
        </mxCell>
        <mxCell id="nRF5QWHPq7WyosWiSte5-3" value="&lt;font style=&quot;font-size: 18px&quot;&gt;PTE req&lt;/font&gt;" style="text;html=1;strokeColor=none;fillColor=none;align=center;verticalAlign=middle;whiteSpace=wrap;rounded=0;" vertex="1" parent="1">
          <mxGeometry x="611" y="281" width="72" height="18" as="geometry" />
        </mxCell>
      </root>
    </mxGraphModel>
  </diagram>
</mxfile>
